<?xml version="1.0" standalone="no"?>
<!DOCTYPE svg PUBLIC "-//W3C//DTD SVG 20010904//EN"
 "http://www.w3.org/TR/2001/REC-SVG-20010904/DTD/svg10.dtd">
<svg version="1.0" xmlns="http://www.w3.org/2000/svg"
 width="512.000000pt" height="512.000000pt" viewBox="0 0 512.000000 512.000000"
 preserveAspectRatio="xMidYMid meet">

<g transform="translate(0.000000,512.000000) scale(0.100000,-0.100000)"
fill="#000000" stroke="none">
<path d="M1675 4996 c-292 -68 -501 -291 -546 -584 -30 -197 39 -567 161 -862
131 -318 167 -435 194 -629 9 -62 16 -148 16 -192 0 -77 10 -115 34 -131 6 -4
41 -8 79 -8 l67 0 0 -148 c0 -132 2 -151 18 -165 16 -15 51 -17 285 -17 l267
0 -2 -201 -3 -201 -39 -13 c-43 -15 -56 -29 -56 -61 0 -36 24 -57 64 -56 l36
1 0 -44 c0 -43 -1 -44 -40 -55 -59 -16 -80 -69 -40 -105 13 -11 30 -16 50 -13
30 5 30 4 30 -43 0 -43 -2 -47 -27 -54 -48 -11 -73 -33 -73 -64 0 -38 31 -65
70 -59 30 5 30 4 30 -42 0 -45 -1 -48 -32 -54 -43 -8 -68 -33 -68 -67 0 -36
39 -64 75 -55 26 7 26 6 23 -40 -3 -44 -5 -47 -42 -59 -43 -15 -56 -29 -56
-61 0 -36 24 -58 64 -57 36 1 36 1 36 -42 0 -41 -2 -44 -37 -55 -44 -14 -63
-34 -63 -66 0 -32 26 -54 66 -54 29 0 34 -4 40 -27 26 -121 46 -163 156 -323
62 -90 120 -168 129 -173 37 -23 63 0 156 143 150 228 173 287 173 451 l0 96
40 12 c22 6 45 21 51 32 24 45 -16 96 -67 86 -23 -4 -24 -1 -24 43 0 45 1 48
32 54 65 13 88 66 47 107 -16 16 -29 20 -51 15 l-29 -6 3 47 c3 42 6 47 32 54
88 24 86 119 -2 119 -31 0 -32 1 -32 44 0 43 2 45 38 56 42 14 62 34 62 65 0
30 -31 55 -68 55 -31 0 -32 1 -32 43 0 42 1 44 40 56 59 18 79 70 40 106 -13
11 -30 16 -50 13 -30 -5 -30 -4 -30 43 0 45 1 48 33 54 65 14 87 65 46 106
-16 16 -29 20 -50 15 l-29 -6 0 120 0 120 268 0 c248 0 270 1 285 18 14 16 17
43 17 165 l0 147 58 0 c83 0 102 16 102 88 0 226 60 468 194 783 36 86 81 203
100 260 75 228 120 543 98 689 -52 360 -373 621 -731 597 -55 -4 -147 -23
-256 -52 -235 -65 -298 -75 -443 -75 -151 1 -221 12 -447 75 -195 53 -331 66
-440 41z m420 -160 c226 -62 313 -76 465 -76 152 0 239 14 465 76 97 26 203
48 246 51 290 21 550 -191 601 -487 9 -54 9 -97 0 -192 -25 -245 -68 -408
-184 -688 -140 -338 -172 -457 -203 -752 l-6 -58 -610 0 c-596 0 -609 0 -629
-20 -25 -25 -25 -55 0 -80 19 -19 33 -20 550 -20 l530 0 0 -105 0 -105 -760 0
-760 0 0 105 0 105 40 0 c45 0 80 27 80 60 0 11 -9 29 -20 40 -18 18 -33 20
-150 20 l-130 0 0 49 c0 83 -28 272 -59 392 -28 111 -64 212 -169 469 -93 227
-162 569 -149 735 20 247 189 450 429 515 113 31 215 23 423 -34z m653 -2712
l-3 -137 -165 -43 c-91 -24 -175 -46 -187 -49 l-23 -5 0 185 0 185 190 0 191
0 -3 -136z m2 -309 c0 -43 -1 -45 -37 -54 -21 -5 -107 -28 -190 -50 l-153 -40
0 48 0 47 173 46 c94 25 180 46 190 47 14 1 17 -7 17 -44z m0 -214 l0 -48
-178 -47 c-99 -25 -184 -46 -190 -46 -7 0 -12 17 -12 44 l0 43 123 32 c109 29
248 67 255 70 1 0 2 -21 2 -48z m0 -219 l0 -47 -172 -45 c-95 -24 -181 -46
-190 -48 -15 -4 -18 3 -18 41 0 53 -30 39 230 107 80 21 146 39 148 39 1 1 2
-20 2 -47z m-2 -219 l-3 -47 -180 -47 c-99 -27 -184 -48 -188 -49 -4 0 -7 21
-5 47 l3 47 180 47 c99 26 184 48 188 48 4 1 7 -20 5 -46z m2 -217 c0 -34 -4
-46 -17 -50 -10 -3 -88 -24 -173 -46 -85 -22 -163 -43 -172 -46 -15 -5 -18 2
-18 43 l0 48 178 47 c97 25 183 47 190 47 8 1 12 -14 12 -43z m0 -250 c0 -44
-8 -98 -19 -134 -20 -64 -159 -288 -171 -275 -4 4 -37 52 -75 106 -71 104 -98
163 -109 237 l-7 46 173 46 c95 25 181 47 191 47 15 1 17 -9 17 -73z"/>
<path d="M1397 4332 c-23 -25 -23 -129 -1 -160 19 -28 64 -29 89 -2 24 26 17
130 -10 160 -23 25 -57 26 -78 2z"/>
<path d="M1442 4034 c-14 -9 -22 -26 -22 -43 0 -50 55 -220 137 -426 88 -222
114 -304 152 -480 24 -109 29 -121 53 -133 20 -9 33 -10 48 -2 40 21 42 42 15
168 -40 188 -82 316 -193 583 -22 53 -54 145 -71 205 -41 141 -64 167 -119
128z"/>
</g>
</svg>
